<?xml version="1.0" encoding="UTF-8"?>
<svg width="197px" height="245px" viewBox="0 0 197 245" version="1.1" xmlns="http://www.w3.org/2000/svg" xmlns:xlink="http://www.w3.org/1999/xlink">
    <!-- Generator: Sketch 43.2 (39069) - http://www.bohemiancoding.com/sketch -->
    <title>cloud</title>
    <desc>Created with Sketch.</desc>
    <defs></defs>
    <g id="Page-1" stroke="none" stroke-width="1" fill="none" fill-rule="evenodd">
        <g id="cloud">
            <g id="Group">
                <g id="Shape" fill-rule="nonzero">
                    <path d="M139.575,103.198 C139.575,103.198 157.945,86.188 154.561,54.589 C151.176,22.992 151.569,41.868 151.569,41.868 L171.994,45.364 C171.994,45.364 179.057,61.388 174.369,72.532 C169.681,83.677 159.521,102.271 139.575,103.198 Z" fill="#BCEBDD"></path>
                    <path d="M42.539,95.633 C43.685,94.021 44.677,92.292 45.5,90.472 C51.251,92.244 57.352,93.225 63.686,93.225 C97.826,93.225 125.503,65.547 125.503,31.41 C125.503,22.34 123.534,13.738 120.024,5.98 C112.266,2.47 103.663,0.5 94.593,0.5 C60.451,0.5 32.779,28.179 32.779,62.317 C15.707,62.317 1.869,76.157 1.869,93.224 C1.869,97.76 2.854,102.061 4.609,105.94 C8.488,107.694 12.79,108.678 17.323,108.678 C27.737,108.679 36.938,103.522 42.539,95.633 Z" fill="#BCEBDD"></path>
                    <g>
                        <g transform="translate(3.000000, 5.000000)" fill="#BCEBDD">
                            <path d="M115.654,0.979 C119.162,8.737 121.133,17.338 121.133,26.409 C121.133,60.547 93.456,88.224 59.316,88.224 C52.98,88.224 46.882,87.244 41.129,85.471 C40.308,87.291 39.313,89.02 38.17,90.632 C32.568,98.522 23.366,103.678 12.953,103.678 C8.417,103.678 4.116,102.694 0.237,100.94"></path>
                            <path d="M168.994,40.364 C171.333,45.536 172.645,51.27 172.645,57.317 C172.645,78.335 156.909,95.665 136.575,98.198 C146.193,87.3 152.039,72.995 152.039,57.317 C152.039,50.148 150.821,43.266 148.575,36.868"></path>
                        </g>
                        <path d="M171.994,45.364 C166.82,43.024 161.086,41.71 155.039,41.71 C153.87,41.71 152.715,41.772 151.569,41.868 C145.964,25.883 133.971,12.903 118.654,5.979 C110.896,2.47 102.29,0.5 93.225,0.5 C59.082,0.5 31.408,28.179 31.408,62.317 C14.338,62.317 0.5,76.157 0.5,93.225 C0.5,97.761 1.483,102.062 3.238,105.941 C8.088,116.666 18.871,124.132 31.407,124.132 L155.039,124.132 C177.801,124.132 196.252,105.682 196.252,82.923 C196.252,66.206 186.294,51.828 171.994,45.364 Z" fill="#007FFF"></path>
                    </g>
                </g>
                <g id="Shape">
                    <path d="M139.575,103.198 C139.575,103.198 157.945,86.188 154.561,54.589 C151.176,22.992 151.569,41.868 151.569,41.868 L171.994,45.364 C171.994,45.364 179.057,61.388 174.369,72.532 C169.681,83.677 159.521,102.271 139.575,103.198 Z" fill="#FFFFFF" fill-rule="nonzero"></path>
                    <path d="M42.539,95.633 C43.685,94.021 44.677,92.292 45.5,90.472 C51.251,92.244 57.352,93.225 63.686,93.225 C97.826,93.225 125.503,65.547 125.503,31.41 C125.503,22.34 123.534,13.738 120.024,5.98 C112.266,2.47 103.663,0.5 94.593,0.5 C60.451,0.5 32.779,28.179 32.779,62.317 C15.707,62.317 1.869,76.157 1.869,93.224 C1.869,97.76 2.854,102.061 4.609,105.94 C8.488,107.694 12.79,108.678 17.323,108.678 C27.737,108.679 36.938,103.522 42.539,95.633 Z" fill="#FFFFFF" fill-rule="nonzero"></path>
                    <g>
                        <g transform="translate(3.000000, 5.000000)">
                            <path d="M115.654,0.979 C119.162,8.737 121.133,17.338 121.133,26.409 C121.133,60.547 93.456,88.224 59.316,88.224 C52.98,88.224 46.882,87.244 41.129,85.471 C40.308,87.291 39.313,89.02 38.17,90.632 C32.568,98.522 23.366,103.678 12.953,103.678 C8.417,103.678 4.116,102.694 0.237,100.94"></path>
                            <path d="M168.994,40.364 C171.333,45.536 172.645,51.27 172.645,57.317 C172.645,78.335 156.909,95.665 136.575,98.198 C146.193,87.3 152.039,72.995 152.039,57.317 C152.039,50.148 150.821,43.266 148.575,36.868"></path>
                        </g>
                        <path d="M171.994,45.364 C166.82,43.024 161.086,41.71 155.039,41.71 C153.87,41.71 152.715,41.772 151.569,41.868 C145.964,25.883 133.971,12.903 118.654,5.979 C110.896,2.47 102.29,0.5 93.225,0.5 C59.082,0.5 31.408,28.179 31.408,62.317 C14.338,62.317 0.5,76.157 0.5,93.225 C0.5,97.761 1.483,102.062 3.238,105.941 C8.088,116.666 18.871,124.132 31.407,124.132 L155.039,124.132 C177.801,124.132 196.252,105.682 196.252,82.923 C196.252,66.206 186.294,51.828 171.994,45.364 Z"></path>
                    </g>
                </g>
            </g>
            <g id="Group" transform="translate(66.000000, 137.000000)" stroke="#BCEBDD" stroke-width="5">
                <circle id="Oval" fill="#FFFFFF" fill-rule="nonzero" cx="32.376" cy="72.911" r="32"></circle>
                <circle id="Oval" cx="32.375" cy="72.911" r="19.2"></circle>
                <path d="M21.074,8.911 L21.074,28.112" id="Shape"></path>
                <path d="M32.376,0.911 L32.376,20.112" id="Shape"></path>
                <path d="M44.377,12.112 L44.377,31.312" id="Shape"></path>
            </g>
        </g>
    </g>
</svg>