<svg display="none" width="0" height="0" version="1.1" xmlns="http://www.w3.org/2000/svg" xmlns:xlink="http://www.w3.org/1999/xlink">
  <defs>
    <symbol id="smiley-text" viewBox="0 0 880 270">
      <path d="M131.625,162.984375 C131.625,173.578178 129.046901,182.6484 123.890625,190.195313 C118.734349,197.742225 111.117238,203.460918 101.039062,207.351563 C90.960887,211.242207 78.7031972,213.1875 64.265625,213.1875 C50.4843061,213.1875 38.6719242,211.078146 28.828125,206.859375 C18.9843258,202.640604 11.7187734,197.367219 7.03125,191.039063 C2.3437266,184.710906 0,178.359407 0,171.984375 C0,167.765604 1.499985,164.156265 4.5,161.15625 C7.500015,158.156235 11.296852,156.65625 15.890625,156.65625 C19.9218952,156.65625 23.0156142,157.640615 25.171875,159.609375 C27.3281358,161.578135 29.3906152,164.343732 31.359375,167.90625 C35.2968947,174.750034 40.0077851,179.859358 45.4921875,183.234375 C50.9765899,186.609392 58.4530777,188.296875 67.921875,188.296875 C75.6094134,188.296875 81.9140379,186.585955 86.8359375,183.164063 C91.757837,179.74217 94.21875,175.828147 94.21875,171.421875 C94.21875,164.671841 91.664088,159.750015 86.5546875,156.65625 C81.445287,153.562485 73.0313086,150.609389 61.3125,147.796875 C48.0936839,144.515609 37.335979,141.070331 29.0390625,137.460937 C20.742146,133.851544 14.1093998,129.09378 9.140625,123.1875 C4.1718502,117.28122 1.6875,110.015668 1.6875,101.390625 C1.6875,93.703087 3.984352,86.437534 8.578125,79.59375 C13.171898,72.749966 19.9452677,67.289083 28.8984375,63.210937 C37.8516073,59.132792 48.6561867,57.09375 61.3125,57.09375 C71.2500497,57.09375 80.1796479,58.12499 88.1015625,60.1875 C96.023477,62.25001 102.632786,65.015608 107.929688,68.484375 C113.226589,71.953142 117.257799,75.796854 120.023438,80.015625 C122.789076,84.234396 124.171875,88.359355 124.171875,92.390625 C124.171875,96.796897 122.695327,100.406236 119.742188,103.21875 C116.789048,106.031264 112.593777,107.4375 107.15625,107.4375 C103.21873,107.4375 99.867201,106.312511 97.101562,104.0625 C94.335924,101.812489 91.171893,98.437523 87.609375,93.9375 C84.7031105,90.187481 81.2812697,87.187511 77.34375,84.9375 C73.4062303,82.687489 68.0625338,81.5625 61.3125,81.5625 C54.3749653,81.5625 48.609398,83.039048 44.015625,85.992187 C39.421852,88.945327 37.125,92.624978 37.125,97.03125 C37.125,101.06252 38.8124831,104.367175 42.1875,106.945313 C45.5625169,109.52345 50.1093464,111.656242 55.828125,113.34375 C61.5469036,115.031258 69.4218248,117.093738 79.453125,119.53125 C91.359435,122.437515 101.0859,125.90623 108.632812,129.9375 C116.179725,133.96877 121.898418,138.726535 125.789062,144.210937 C129.679707,149.69534 131.625,155.95309 131.625,162.984375 L131.625,162.984375 L131.625,162.984375 Z M291.796875,137.953125 L291.796875,189 C291.796875,197.06254 289.968768,203.109355 286.3125,207.140625 C282.656232,211.171895 277.828155,213.1875 271.828125,213.1875 C266.015596,213.1875 261.304706,211.171895 257.695312,207.140625 C254.085919,203.109355 252.28125,197.06254 252.28125,189 L252.28125,127.828125 C252.28125,118.171827 251.953128,110.671902 251.296875,105.328125 C250.640622,99.984348 248.85939,95.60158 245.953125,92.179687 C243.04686,88.757795 238.453156,87.046875 232.171875,87.046875 C219.609312,87.046875 211.335957,91.359332 207.351562,99.984375 C203.367168,108.609418 201.375,120.984294 201.375,137.109375 L201.375,189 C201.375,196.96879 199.570331,202.992167 195.960938,207.070313 C192.351544,211.148458 187.59378,213.1875 181.6875,213.1875 C175.874971,213.1875 171.117206,211.148458 167.414062,207.070313 C163.710919,202.992167 161.859375,196.96879 161.859375,189 L161.859375,79.171875 C161.859375,71.953089 163.523421,66.468769 166.851562,62.71875 C170.179704,58.968731 174.562473,57.09375 180,57.09375 C185.250026,57.09375 189.632795,58.851545 193.148438,62.367187 C196.66408,65.88283 198.421875,70.734344 198.421875,76.921875 L198.421875,80.578125 C205.078158,72.609335 212.203087,66.750019 219.796875,63 C227.390663,59.249981 235.828079,57.375 245.109375,57.375 C254.765673,57.375 263.062465,59.296856 270,63.140625 C276.937535,66.984394 282.656227,72.796836 287.15625,80.578125 C293.625032,72.703086 300.562463,66.867206 307.96875,63.070313 C315.375037,59.273419 323.57808,57.375 332.578125,57.375 C343.078178,57.375 352.124962,59.437479 359.71875,63.5625 C367.312538,67.687521 372.984356,73.593712 376.734375,81.28125 C380.015641,88.218785 381.65625,99.14055 381.65625,114.046875 L381.65625,189 C381.65625,197.06254 379.828143,203.109355 376.171875,207.140625 C372.515607,211.171895 367.68753,213.1875 361.6875,213.1875 C355.874971,213.1875 351.117206,211.148458 347.414062,207.070313 C343.710919,202.992167 341.859375,196.96879 341.859375,189 L341.859375,124.453125 C341.859375,116.203084 341.507816,109.593775 340.804688,104.625 C340.101559,99.656225 338.20314,95.484392 335.109375,92.109375 C332.01561,88.734358 327.328156,87.046875 321.046875,87.046875 C315.98435,87.046875 311.17971,88.54686 306.632812,91.546875 C302.085915,94.54689 298.546888,98.5781 296.015625,103.640625 C293.203111,110.109407 291.796875,121.546793 291.796875,137.953125 L291.796875,137.953125 L291.796875,137.953125 Z M457.3125,78.890625 L457.3125,189.84375 C457.3125,197.531288 455.484393,203.34373 451.828125,207.28125 C448.171857,211.21877 443.531278,213.1875 437.90625,213.1875 C432.281222,213.1875 427.710955,211.171895 424.195312,207.140625 C420.67967,203.109355 418.921875,197.343787 418.921875,189.84375 L418.921875,80.015625 C418.921875,72.421837 420.67967,66.703144 424.195312,62.859375 C427.710955,59.015606 432.281222,57.09375 437.90625,57.09375 C443.531278,57.09375 448.171857,59.015606 451.828125,62.859375 C455.484393,66.703144 457.3125,72.046841 457.3125,78.890625 L457.3125,78.890625 L457.3125,78.890625 Z M438.328125,39.234375 C432.984348,39.234375 428.414081,37.593766 424.617188,34.3125 C420.820294,31.031234 418.921875,26.390655 418.921875,20.390625 C418.921875,14.953098 420.867168,10.47658 424.757812,6.960937 C428.648457,3.445295 433.171849,1.6875 438.328125,1.6875 C443.2969,1.6875 447.703106,3.281234 451.546875,6.46875 C455.390644,9.656266 457.3125,14.296845 457.3125,20.390625 C457.3125,26.296905 455.437519,30.914046 451.6875,34.242187 C447.937481,37.570329 443.484401,39.234375 438.328125,39.234375 L438.328125,39.234375 L438.328125,39.234375 Z M496.96875,189.84375 L496.96875,23.34375 C496.96875,15.656212 498.67967,9.84377 502.101562,5.90625 C505.523455,1.96873 510.140596,0 515.953125,0 C521.765654,0 526.453107,1.945293 530.015625,5.835937 C533.578143,9.726582 535.359375,15.562461 535.359375,23.34375 L535.359375,189.84375 C535.359375,197.625039 533.554706,203.460918 529.945312,207.351563 C526.335919,211.242207 521.671904,213.1875 515.953125,213.1875 C510.328097,213.1875 505.75783,211.171895 502.242188,207.140625 C498.726545,203.109355 496.96875,197.343787 496.96875,189.84375 L496.96875,189.84375 L496.96875,189.84375 Z M682.171875,144.5625 L607.078125,144.5625 C607.171875,153.281294 608.92967,160.968717 612.351562,167.625 C615.773455,174.281283 620.320284,179.296858 625.992188,182.671875 C631.664091,186.046892 637.921841,187.734375 644.765625,187.734375 C649.359398,187.734375 653.554669,187.195318 657.351562,186.117187 C661.148456,185.039057 664.828107,183.351574 668.390625,181.054687 C671.953143,178.757801 675.23436,176.296888 678.234375,173.671875 C681.23439,171.046862 685.124976,167.484398 689.90625,162.984375 C691.87501,161.296867 694.687482,160.453125 698.34375,160.453125 C702.28127,160.453125 705.468738,161.531239 707.90625,163.6875 C710.343762,165.843761 711.5625,168.890605 711.5625,172.828125 C711.5625,176.296892 710.203139,180.351539 707.484375,184.992187 C704.765611,189.632836 700.66409,194.085916 695.179688,198.351563 C689.695285,202.617209 682.804729,206.156236 674.507812,208.96875 C666.210896,211.781264 656.671929,213.1875 645.890625,213.1875 C621.234252,213.1875 602.062568,206.15632 588.375,192.09375 C574.687432,178.03118 567.84375,158.953245 567.84375,134.859375 C567.84375,123.515568 569.531233,112.992236 572.90625,103.289063 C576.281267,93.585889 581.203093,85.26566 587.671875,78.328125 C594.140657,71.39059 602.109328,66.070331 611.578125,62.367187 C621.046922,58.664044 631.546817,56.8125 643.078125,56.8125 C658.0782,56.8125 670.945259,59.976531 681.679688,66.304687 C692.414116,72.632844 700.453098,80.81245 705.796875,90.84375 C711.140652,100.87505 713.8125,111.093698 713.8125,121.5 C713.8125,131.156298 711.046903,137.414048 705.515625,140.273437 C699.984347,143.132827 692.203175,144.5625 682.171875,144.5625 L682.171875,144.5625 L682.171875,144.5625 Z M607.078125,122.765625 L676.6875,122.765625 C675.749995,109.640559 672.210968,99.820345 666.070312,93.304687 C659.929657,86.78903 651.8438,83.53125 641.8125,83.53125 C632.249952,83.53125 624.398468,86.835904 618.257812,93.445313 C612.117157,100.054721 608.390632,109.82806 607.078125,122.765625 L607.078125,122.765625 L607.078125,122.765625 Z M774.140625,217.96875 L777.65625,209.390625 L730.40625,90.421875 C727.499985,83.578091 726.046875,78.60939 726.046875,75.515625 C726.046875,72.234359 726.890617,69.187514 728.578125,66.375 C730.265633,63.562486 732.585923,61.312508 735.539062,59.625 C738.492202,57.937492 741.562484,57.09375 744.75,57.09375 C750.281278,57.09375 754.453111,58.851545 757.265625,62.367187 C760.078139,65.88283 762.562489,70.921842 764.71875,77.484375 L797.203125,171.984375 L828,84.09375 C830.437512,76.968714 832.640615,71.390645 834.609375,67.359375 C836.578135,63.328105 838.664051,60.609382 840.867188,59.203125 C843.070324,57.796868 846.18748,57.09375 850.21875,57.09375 C853.125015,57.09375 855.914049,57.86718 858.585938,59.414063 C861.257826,60.960945 863.320305,63.046862 864.773438,65.671875 C866.22657,68.296888 866.953125,71.062485 866.953125,73.96875 C866.578123,75.750009 865.968754,78.281234 865.125,81.5625 C864.281246,84.843766 863.250006,88.171858 862.03125,91.546875 L811.96875,222.609375 C807.656228,234.140683 803.437521,243.187467 799.3125,249.75 C795.187479,256.312533 789.726596,261.351545 782.929688,264.867187 C776.132779,268.38283 766.968808,270.140625 755.4375,270.140625 C744.187444,270.140625 735.750028,268.921887 730.125,266.484375 C724.499972,264.046863 721.6875,259.593782 721.6875,253.125 C721.6875,248.718728 723.023424,245.320324 725.695312,242.929687 C728.367201,240.539051 732.328099,239.34375 737.578125,239.34375 C739.640635,239.34375 741.65624,239.624997 743.625,240.1875 C746.062512,240.750003 748.171866,241.03125 749.953125,241.03125 C754.359397,241.03125 757.828112,240.375007 760.359375,239.0625 C762.890638,237.749993 765.164052,235.476579 767.179688,232.242187 C769.195323,229.007796 771.515612,224.250031 774.140625,217.96875 L774.140625,217.96875 L774.140625,217.96875 Z" id="smiley"></path>
    </symbol>
  </defs>
</svg>
