<?xml version="1.0" encoding="UTF-8"?>
<svg width="184px" height="293px" viewBox="0 0 184 293" version="1.1" xmlns="http://www.w3.org/2000/svg" xmlns:xlink="http://www.w3.org/1999/xlink">
    <!-- Generator: Sketch 43.2 (39069) - http://www.bohemiancoding.com/sketch -->
    <title>flower</title>
    <desc>Created with Sketch.</desc>
    <defs></defs>
    <g id="Page-1" stroke="none" stroke-width="1" fill="none" fill-rule="evenodd">
        <g id="flower">
            <path d="M79.514,32.127 C79.514,45.213 85.799,56.829 95.514,64.127 C105.229,56.829 111.514,45.213 111.514,32.127 C111.514,19.041 105.229,7.425 95.514,0.127 C85.799,7.425 79.514,19.041 79.514,32.127 Z" id="Shape" fill="#BCEBDD" fill-rule="nonzero"></path>
            <polygon id="Shape" fill="#007FFF" fill-rule="nonzero" points="135.514 292.127 55.514 292.127 47.514 196.127 143.514 196.127"></polygon>
            <rect id="Rectangle-path" fill="#007FFF" fill-rule="nonzero" x="31.514" y="164.127" width="128" height="32"></rect>
            <path d="M95.514,164.127 L95.514,32.127" id="Shape" stroke="#BCEBDD" stroke-width="5"></path>
            <path d="M112.209,65.043 C104.742,72.51 101.699,82.727 103.078,92.436 C112.787,93.816 123.004,90.772 130.471,83.305 C137.94,75.836 140.983,65.621 139.604,55.911 C129.893,54.531 119.678,57.574 112.209,65.043 Z" id="Shape" fill="#BCEBDD" fill-rule="nonzero"></path>
            <path d="M122.1,73.416 L95.514,100" id="Shape"></path>
            <path d="M52.201,90.33 C61.453,99.582 74.111,103.353 86.14,101.644 C87.851,89.613 84.079,76.955 74.827,67.703 C65.573,58.449 52.915,54.68 40.886,56.389 C39.178,68.42 42.947,81.076 52.201,90.33 Z" id="Shape" fill="#BCEBDD" fill-rule="nonzero"></path>
            <path d="M62.574,78.076 L95.514,111.016" id="Shape"></path>
            <path d="M143.916,89.848 C129.033,92.86 117.264,102.682 111.197,115.411 C121.736,124.786 136.398,129.261 151.281,126.249 C166.168,123.235 177.937,113.413 184.002,100.683 C173.463,91.309 158.805,86.834 143.916,89.848 Z" id="Shape" fill="#BCEBDD" fill-rule="nonzero"></path>
            <path d="M149.111,107.742 L96.121,118.463" id="Shape"></path>
            <path d="M34.637,141.146 C50.809,145.193 67.11,141.019 79.135,131.269 C73.117,117.003 60.703,105.644 44.531,101.597 C28.357,97.552 12.056,101.726 0.033,111.478 C6.049,125.742 18.463,137.1 34.637,141.146 Z" id="Shape" fill="#BCEBDD" fill-rule="nonzero"></path>
            <path d="M37.945,120.961 L95.514,135.365" id="Shape"></path>
        </g>
    </g>
</svg>