<?xml version="1.0" encoding="UTF-8"?>
<svg width="1024px" height="282px" viewBox="0 0 1024 282" version="1.1" xmlns="http://www.w3.org/2000/svg" xmlns:xlink="http://www.w3.org/1999/xlink">
    <!-- Generator: Sketch 41.2 (35397) - http://www.bohemiancoding.com/sketch -->
    <title>LogoText</title>
    <desc>Created with Sketch.</desc>
    <defs></defs>
    <g id="Page-1" stroke="none" stroke-width="1" fill="none" fill-rule="evenodd">
        <g id="Mobile-Portrait" transform="translate(-261.000000, -39.000000)" fill="#000000">
            <path d="M524.906168,229.285222 C529.638142,233.721449 552.41077,252.649347 588.492077,252.649347 C626.93937,252.649347 654.443973,227.510732 654.443973,196.752897 C654.443973,160.67159 625.16488,144.405428 590.858064,130.505252 C566.310946,120.449806 553.298015,110.098612 553.298015,93.2409522 C553.298015,82.2982609 561.874719,66.623595 586.717586,66.623595 C603.870994,66.623595 615.109434,74.0173053 626.643622,81.4110157 C630.7841,84.0727514 634.628829,82.2982609 636.994816,78.4535315 L644.388527,67.2150918 C647.346011,62.7788656 644.980024,58.6383878 642.614036,57.1596457 C639.656552,55.0894069 617.475421,39.7104894 587.90058,39.7104894 C540.876582,39.7104894 523.131677,71.3555696 523.131677,94.4239458 C523.131677,128.730762 546.79155,144.405428 576.957888,157.12261 C606.236981,169.248294 621.615899,180.486734 621.615899,198.231639 C621.615899,213.314808 608.602969,225.736241 588.196328,225.736241 C565.4237,225.736241 554.776757,216.863789 540.876582,205.329601 C537.623349,202.667865 533.187123,203.850859 530.821136,207.695588 L523.131677,219.821273 C519.878445,224.848996 522.244432,226.919235 524.906168,229.285222 Z M672.583209,243.185398 C672.583209,246.734379 675.540693,249.691863 679.089674,249.691863 L695.651585,249.691863 C698.904818,249.691863 702.15805,246.734379 702.15805,243.185398 L702.15805,158.009855 C703.636792,153.27788 713.987987,138.194711 734.394627,138.194711 C753.322526,138.194711 761.307733,151.207641 761.307733,173.388772 L761.307733,243.185398 C761.307733,246.734379 763.969469,249.691863 767.814198,249.691863 L784.671857,249.691863 C787.92509,249.691863 790.882574,246.734379 790.882574,243.185398 L790.882574,172.501527 C790.882574,165.403565 790.291077,157.12261 789.699581,154.165125 C792.065568,152.094886 801.825265,138.194711 822.527654,138.194711 C841.159804,138.194711 849.44076,151.50339 849.44076,173.388772 L849.44076,243.185398 C849.44076,246.734379 851.806747,249.691863 855.947225,249.691863 L872.509136,249.691863 C876.353866,249.691863 879.015601,246.734379 879.015601,243.185398 L879.015601,174.571766 C879.015601,139.081956 868.664407,110.098612 826.963881,110.098612 C800.93802,110.098612 784.671857,127.843517 780.827128,131.688246 C770.771682,117.788071 758.941745,110.098612 739.126602,110.098612 C713.100741,110.098612 698.609069,125.773278 695.651585,129.02651 L691.806856,117.196574 C690.91961,114.534838 689.14512,113.056096 685.891887,113.056096 L679.089674,113.056096 C675.540693,113.056096 672.583209,116.309328 672.583209,119.562561 L672.583209,243.185398 Z M906.618787,243.185398 C906.618787,246.734379 909.576271,249.691863 913.125252,249.691863 L929.687163,249.691863 C932.940395,249.691863 936.193628,246.734379 936.193628,243.185398 L936.193628,119.562561 C936.193628,116.309328 932.940395,113.056096 929.687163,113.056096 L913.125252,113.056096 C909.576271,113.056096 906.618787,116.309328 906.618787,119.562561 L906.618787,243.185398 Z M921.406207,83.777003 C932.644647,83.777003 941.517099,74.9045506 941.517099,63.9618593 C941.517099,52.7234195 932.644647,43.8509671 921.406207,43.8509671 C910.463516,43.8509671 901.886812,52.7234195 901.886812,63.9618593 C901.886812,74.9045506 910.463516,83.777003 921.406207,83.777003 Z M966.162801,243.185398 C966.162801,246.734379 969.120285,249.691863 972.669266,249.691863 L989.231177,249.691863 C992.484409,249.691863 995.737642,246.734379 995.737642,243.185398 L995.737642,49.1744386 C995.737642,45.921206 992.484409,42.6679735 989.231177,42.6679735 L972.669266,42.6679735 C969.120285,42.6679735 966.162801,45.921206 966.162801,49.1744386 L966.162801,243.185398 Z M1017.42586,181.373979 C1017.42586,220.41277 1044.33896,252.945095 1085.74374,252.945095 C1108.51637,252.945095 1126.55702,244.66414 1136.31672,236.087436 C1140.4572,232.538455 1139.27421,229.876719 1136.90822,226.919235 L1128.92301,214.497802 C1126.55702,210.948821 1123.89529,211.836066 1120.9378,213.906305 C1112.65685,219.821273 1103.1929,225.440493 1087.51823,225.440493 C1063.56261,225.440493 1047.0007,206.512595 1046.70495,188.176193 L1141.0487,188.176193 C1144.00618,188.176193 1146.96366,185.810206 1147.25941,182.261225 C1147.55516,179.895237 1147.85091,175.163263 1147.85091,172.797275 C1147.85091,136.420221 1120.9378,110.098612 1085.44799,110.098612 C1044.33896,110.098612 1017.42586,142.926686 1017.42586,181.373979 Z M1048.18369,166.29081 C1050.25393,149.137402 1063.26686,135.237227 1084.8565,135.237227 C1104.96739,135.237227 1117.98032,149.728899 1118.57182,166.29081 L1048.18369,166.29081 Z M1197.63523,244.959888 L1170.13062,310.911785 C1167.76464,315.643759 1171.01787,320.079985 1176.04559,320.079985 L1194.97349,320.079985 C1197.63523,320.079985 1199.40972,318.009746 1200.59271,315.939508 L1283.99376,121.928548 C1286.064,117.196574 1283.69801,113.056096 1278.07879,113.056096 L1259.74239,113.056096 C1256.48916,113.056096 1253.82742,113.647593 1252.64443,116.900825 L1214.19714,210.653072 L1213.60564,210.653072 L1181.96056,116.900825 C1181.07331,114.534838 1178.11583,113.056096 1176.04559,113.056096 L1156.5262,113.056096 C1151.20272,113.056096 1148.83674,117.196574 1150.61123,121.928548 L1197.63523,244.959888 Z M418.214026,197.417429 C390.93753,224.692172 346.712355,224.692172 319.435859,197.417429 C305.797611,183.779181 298.978925,165.903617 298.978925,148.028346 L438.671252,148.028346 C438.671252,165.903617 431.852274,183.779181 418.214026,197.417429 Z M368.824942,40.2034034 C309.275477,40.2034034 261,88.4788801 261,148.028346 C261,207.577811 309.275477,255.853288 368.824942,255.853288 C428.374408,255.853288 476.649885,207.577811 476.649885,148.028346 C476.649885,88.4788801 428.374408,40.2034034 368.824942,40.2034034 Z" id="LogoText"></path>
        </g>
    </g>
</svg>