<?xml version="1.0" encoding="UTF-8"?>
<svg width="257px" height="288px" viewBox="0 0 257 288" version="1.1" xmlns="http://www.w3.org/2000/svg" xmlns:xlink="http://www.w3.org/1999/xlink">
    <!-- Generator: Sketch 43.2 (39069) - http://www.bohemiancoding.com/sketch -->
    <title>re-circle</title>
    <desc>Created with Sketch.</desc>
    <defs></defs>
    <g id="Page-1" stroke="none" stroke-width="1" fill="none" fill-rule="evenodd">
        <g id="re-circle" fill-rule="nonzero">
            <path d="M136.191,239.727 L120.5,224.035 L120.5,239.699 C71.295,235.62 32.5,194.275 32.5,144.035 C32.5,93.689 71.457,52.275 120.809,48.344 L104.5,32.035 L120.225,16.31 C53.488,20.59 0.5,76.236 0.5,144.035 C0.5,211.927 53.634,267.633 120.5,271.777 L120.5,288.035 L136.774,271.761 L152.5,256.035 L136.191,239.727 Z" id="Shape" fill="#007FFF"></path>
            <path d="M136.5,16.293 L136.5,0.035 L120.225,16.31 L104.5,32.035 L120.809,48.344 L136.5,64.035 L136.5,48.372 C185.705,52.45 224.5,93.795 224.5,144.035 C224.5,194.381 185.543,235.796 136.191,239.726 L152.5,256.035 L136.774,271.761 C203.511,267.481 256.5,211.834 256.5,144.035 C256.5,76.143 203.366,20.438 136.5,16.293 Z" id="Shape" fill="#BCEBDD"></path>
            <g id="Group" transform="translate(96.000000, 87.000000)">
                <path d="M64.5,56.909 C64.5,33.013 51.635,12.15 32.5,0.909 C13.365,12.15 0.5,33.013 0.5,56.909 C0.5,80.805 13.365,101.668 32.5,112.909 C51.635,101.668 64.5,80.806 64.5,56.909 Z" id="Shape" fill="#007FFF"></path>
                <path d="M32.5,0.909 L32.5,112.909" id="Shape" stroke="#FFFFFF" stroke-width="5"></path>
                <g transform="translate(0.000000, 6.000000)" id="Shape" stroke="#FFFFFF" stroke-width="5" fill="#FFFFFF">
                    <path d="M32.5,80.909 L64.5,48.909"></path>
                    <path d="M32.5,56.909 L64.5,24.909"></path>
                    <path d="M32.5,32.909 L64.5,0.909"></path>
                    <path d="M32.5,80.909 L0.5,48.909"></path>
                    <path d="M32.5,56.909 L0.5,24.909"></path>
                    <path d="M32.5,32.909 L0.5,0.909"></path>
                </g>
            </g>
        </g>
    </g>
</svg>