<?xml version="1.0" encoding="UTF-8"?>
<svg width="253px" height="253px" viewBox="0 0 253 253" version="1.1" xmlns="http://www.w3.org/2000/svg" xmlns:xlink="http://www.w3.org/1999/xlink">
    <!-- Generator: Sketch 43.2 (39069) - http://www.bohemiancoding.com/sketch -->
    <title>safe</title>
    <desc>Created with Sketch.</desc>
    <defs></defs>
    <g id="Page-1" stroke="none" stroke-width="1" fill="none" fill-rule="evenodd">
        <g id="safe" transform="translate(1.000000, 1.000000)">
            <g id="Group" stroke="#FFFFFF" stroke-width="5">
                <path d="M0.427,125.299 L250.17,125.297" id="Shape"></path>
                <path d="M125.298,0.427 L125.299,250.169" id="Shape"></path>
            </g>
            <g id="Group" transform="translate(12.000000, 12.000000)" fill-rule="nonzero">
                <path d="M157.452,36.818 L169.495,15.96 C186.548,25.828 200.766,40.048 210.632,57.101 L189.777,69.142 C182.024,55.743 170.852,44.571 157.452,36.818 Z" id="Shape" fill="#FFFFFF"></path>
                <path d="M36.817,69.142 L15.959,57.101 C25.827,40.048 40.047,25.829 57.099,15.96 L69.142,36.818 C55.742,44.571 44.569,55.743 36.817,69.142 Z" id="Shape" fill="#FFFFFF"></path>
                <path d="M69.142,189.776 L57.099,210.633 C40.044,200.767 25.828,186.549 15.959,169.494 L36.817,157.453 C44.569,170.853 55.742,182.024 69.142,189.776 Z" id="Shape" fill="#FFFFFF"></path>
                <path d="M189.776,157.454 L210.631,169.495 C200.766,186.55 186.547,200.767 169.494,210.634 L157.451,189.777 C170.852,182.024 182.024,170.853 189.776,157.454 Z" id="Shape" fill="#FFFFFF"></path>
                <g id="Shape">
                    <path d="M15.959,57.101 C6.394,73.632 0.919,92.825 0.919,113.298 C0.919,133.771 6.394,152.964 15.959,169.495 L36.817,157.454 C29.302,144.464 24.999,129.385 24.999,113.298 C24.999,97.212 29.303,82.132 36.817,69.142 L15.959,57.101 Z" fill="#BCEBDD"></path>
                    <path d="M57.099,15.96 L69.142,36.818 C82.131,29.303 97.212,25.001 113.296,25.001 C129.384,25.001 144.463,29.304 157.452,36.818 L169.495,15.96 C152.964,6.397 133.77,0.919 113.296,0.919 C92.823,0.919 73.63,6.396 57.099,15.96 Z" fill="#007FFF"></path>
                    <path d="M210.632,57.101 L189.777,69.142 C197.292,82.132 201.593,97.212 201.593,113.298 C201.593,129.385 197.291,144.464 189.777,157.454 L210.632,169.495 C220.2,152.964 225.675,133.771 225.675,113.298 C225.675,92.825 220.2,73.632 210.632,57.101 Z" fill="#BCEBDD"></path>
                    <path d="M113.296,201.595 C97.212,201.595 82.131,197.292 69.142,189.777 L57.099,210.634 C73.63,220.201 92.824,225.677 113.296,225.677 C133.771,225.677 152.964,220.201 169.495,210.634 L157.452,189.777 C144.463,197.292 129.384,201.595 113.296,201.595 Z" fill="#007FFF"></path>
                </g>
                <path d="M168.918,145.411 L189.776,157.454 C182.024,170.852 170.851,182.024 157.452,189.776 L145.41,168.919 C155.155,163.28 163.278,155.155 168.918,145.411 Z" id="Shape" fill="#FFFFFF"></path>
                <path d="M57.676,81.187 L36.817,69.142 C44.569,55.744 55.742,44.572 69.141,36.819 L81.184,57.679 C71.44,63.315 63.315,71.44 57.676,81.187 Z" id="Shape" fill="#FFFFFF"></path>
                <path d="M81.185,168.919 L69.142,189.776 C55.743,182.024 44.57,170.852 36.818,157.454 L57.677,145.411 C63.315,155.155 71.44,163.28 81.185,168.919 Z" id="Shape" fill="#FFFFFF"></path>
                <path d="M145.41,57.679 L157.452,36.819 C170.851,44.572 182.024,55.744 189.776,69.142 L168.918,81.187 C163.278,71.44 155.155,63.315 145.41,57.679 Z" id="Shape" fill="#FFFFFF"></path>
                <g transform="translate(24.000000, 25.000000)" id="Shape">
                    <path d="M165.776,44.142 L144.918,56.187 C150.383,65.632 153.513,76.599 153.513,88.298 C153.513,99.995 150.383,110.964 144.918,120.411 L165.776,132.454 C173.291,119.464 177.592,104.385 177.592,88.298 C177.593,72.212 173.291,57.132 165.776,44.142 Z" fill="#BCEBDD"></path>
                    <path d="M45.142,11.818 L57.185,32.678 C66.63,27.211 77.597,24.08 89.296,24.08 C100.995,24.08 111.964,27.209 121.41,32.678 L133.452,11.818 C120.463,4.303 105.384,0.001 89.296,0.001 C73.212,0.001 58.131,4.304 45.142,11.818 Z" fill="#007FFF"></path>
                    <path d="M89.296,152.515 C77.597,152.515 66.63,149.384 57.185,143.919 L45.142,164.776 C58.131,172.292 73.212,176.594 89.296,176.594 C105.384,176.594 120.463,172.291 133.452,164.776 L121.41,143.919 C111.964,149.384 100.995,152.515 89.296,152.515 Z" fill="#007FFF"></path>
                    <path d="M33.676,56.187 L12.817,44.142 C5.302,57.132 0.999,72.212 0.999,88.298 C0.999,104.385 5.303,119.464 12.817,132.454 L33.676,120.411 C28.21,110.964 25.08,99.995 25.08,88.298 C25.081,76.599 28.211,65.632 33.676,56.187 Z" fill="#BCEBDD"></path>
                </g>
            </g>
            <circle id="Oval" stroke="#BCEBDD" stroke-width="5" fill="#FFFFFF" fill-rule="nonzero" cx="125.297" cy="125.298" r="64.216"></circle>
            <circle id="Oval" stroke="#BCEBDD" stroke-width="5" cx="125.297" cy="125.298" r="112.378"></circle>
            <path d="M69.099,222.634 L93.185,180.919" id="Shape" stroke="#BCEBDD" stroke-width="5"></path>
            <path d="M181.495,222.634 L157.41,180.919" id="Shape" stroke="#BCEBDD" stroke-width="5"></path>
            <path d="M157.41,69.679 L181.495,27.96" id="Shape" stroke="#BCEBDD" stroke-width="5"></path>
            <path d="M180.918,93.187 L222.632,69.101" id="Shape" stroke="#BCEBDD" stroke-width="5"></path>
            <path d="M180.918,157.411 L222.632,181.495" id="Shape" stroke="#BCEBDD" stroke-width="5"></path>
            <path d="M93.185,69.679 L69.099,27.96" id="Shape" stroke="#BCEBDD" stroke-width="5"></path>
            <path d="M69.676,93.187 L27.959,69.101" id="Shape" stroke="#BCEBDD" stroke-width="5"></path>
            <path d="M69.677,157.411 L27.959,181.495" id="Shape" stroke="#BCEBDD" stroke-width="5"></path>
            <path d="M222.351,203.073 C220.308,211.633 211.633,220.307 203.074,222.35 L199.527,223.196 C190.967,225.239 179.015,232.14 172.966,238.532 L170.461,241.179 C164.412,247.571 152.563,250.745 144.128,248.236 L140.634,247.195 C132.199,244.685 118.398,244.684 109.964,247.195 L106.47,248.235 C98.036,250.746 86.185,247.57 80.136,241.179 L77.63,238.532 C71.581,232.14 59.628,225.24 51.068,223.197 L47.522,222.35 C38.963,220.307 30.288,211.632 28.245,203.073 L27.399,199.528 C25.356,190.968 18.455,179.016 12.064,172.966 L9.416,170.46 C3.025,164.41 -0.15,152.561 2.36,144.126 L3.4,140.632 C5.91,132.197 5.91,118.396 3.4,109.962 L2.36,106.469 C-0.15,98.034 3.025,86.184 9.417,80.135 L12.064,77.629 C18.456,71.58 25.356,59.627 27.399,51.067 L28.245,47.522 C30.288,38.962 38.963,30.288 47.523,28.244 L51.068,27.398 C59.628,25.355 71.58,18.454 77.63,12.063 L80.137,9.415 C86.186,3.025 98.036,-0.15 106.47,2.36 L109.963,3.4 C118.397,5.91 132.198,5.91 140.633,3.4 L144.127,2.36 C152.562,-0.15 164.411,3.025 170.461,9.416 L172.967,12.064 C179.017,18.455 190.969,25.356 199.529,27.399 L203.074,28.245 C211.634,30.288 220.308,38.963 222.351,47.523 L223.197,51.068 C225.24,59.628 232.141,71.58 238.532,77.63 L241.18,80.136 C247.571,86.185 250.746,98.035 248.236,106.469 L247.196,109.963 C244.685,118.397 244.685,132.198 247.196,140.633 L248.236,144.127 C250.747,152.562 247.571,164.411 241.18,170.46 L238.532,172.967 C232.141,179.016 225.24,190.968 223.197,199.528 L222.351,203.073 Z" id="Shape" stroke="#BCEBDD" stroke-width="5"></path>
        </g>
    </g>
</svg>