<?xml version="1.0" encoding="UTF-8"?>
<svg width="289px" height="289px" viewBox="0 0 289 289" version="1.1" xmlns="http://www.w3.org/2000/svg" xmlns:xlink="http://www.w3.org/1999/xlink">
    <!-- Generator: Sketch 43.2 (39069) - http://www.bohemiancoding.com/sketch -->
    <title>setting</title>
    <desc>Created with Sketch.</desc>
    <defs></defs>
    <g id="Page-1" stroke="none" stroke-width="1" fill="none" fill-rule="evenodd">
        <g id="setting">
            <path d="M288.502,160.001 L288.504,129 L238.592,125.361 C237.809,121.494 236.793,117.711 235.561,114.027 L276.961,85.923 L261.461,59.075 L216.397,80.889 C213.805,77.963 211.04,75.196 208.112,72.606 L229.926,27.542 L203.078,12.041 L174.974,53.44 C171.29,52.208 167.507,51.192 163.64,50.409 L160,0.5 L129,0.5 L125.361,50.41 C121.494,51.193 117.711,52.209 114.027,53.441 L85.923,12.043 L59.078,27.543 L80.89,72.605 C77.965,75.197 75.197,77.963 72.607,80.89 L27.543,59.076 L12.043,85.924 L53.441,114.028 C52.209,117.712 51.193,121.494 50.412,125.362 L0.5,129 L0.502,160 L50.412,163.64 C51.193,167.508 52.209,171.29 53.441,174.974 L12.043,203.078 L27.543,229.925 L72.607,208.112 C75.199,211.037 77.965,213.804 80.89,216.396 L59.078,261.459 L85.926,276.959 L114.028,235.561 C117.712,236.793 121.495,237.809 125.362,238.592 L129,288.5 L160,288.5 L163.641,238.59 C167.508,237.807 171.289,236.791 174.973,235.559 L203.077,276.957 L229.927,261.457 L208.113,216.394 C211.041,213.802 213.806,211.035 216.398,208.11 L261.461,229.923 L276.963,203.076 L235.563,174.972 C236.795,171.289 237.811,167.507 238.594,163.64 L288.502,160.001 Z" id="Shape" fill="#BCEBDD" fill-rule="nonzero"></path>
            <g id="Group" transform="translate(96.000000, 96.000000)">
                <g id="Shape" fill-rule="nonzero">
                    <path d="M82.443,14.56 C73.755,5.873 61.755,0.5 48.502,0.5 L48.502,48.5 L82.443,14.56 Z" fill="#FFFFFF"></path>
                    <path d="M82.443,14.56 L48.502,48.5 L82.443,82.441 C91.129,73.755 96.502,61.754 96.502,48.5 C96.502,35.246 91.129,23.245 82.443,14.56 Z" fill="#FFFFFF"></path>
                    <path d="M48.502,0.5 C21.992,0.5 0.502,21.99 0.502,48.5 C0.502,75.01 21.992,96.5 48.502,96.5 C61.756,96.5 73.756,91.128 82.443,82.441 L48.502,48.5 L48.502,0.5 Z" fill="#007FFF"></path>
                </g>
                <circle id="Oval" cx="48.502" cy="48.5" r="48"></circle>
                <path d="M48.502,48.5 L81.668,15.334" id="Shape"></path>
                <polyline id="Shape" points="82.434 82.433 48.502 48.5 48.502 0.5"></polyline>
            </g>
        </g>
    </g>
</svg>