<?xml version="1.0" encoding="UTF-8"?>
<svg width="738px" height="738px" viewBox="0 0 738 738" version="1.1" xmlns="http://www.w3.org/2000/svg" xmlns:xlink="http://www.w3.org/1999/xlink">
    <!-- Generator: Sketch 41.2 (35397) - http://www.bohemiancoding.com/sketch -->
    <title>Smiley</title>
    <desc>Created with Sketch.</desc>
    <defs></defs>
    <g id="Page-1" stroke="none" stroke-width="1" fill="none" fill-rule="evenodd">
        <g id="Smiley">
            <path d="M369,0 C165.209,0 0,165.209 0,369 C0,572.791 165.209,738 369,738 C572.791,738 738,572.791 738,369 C738,165.209 572.791,0 369,0 Z M538.02,538.02 C444.674,631.36 293.326,631.36 199.98,538.02 C153.307,491.347 129.972,430.173 129.972,369 L608.029,369 C608.029,430.173 584.693,491.347 538.02,538.02 Z" id="Shape" fill="#27A3DE"></path>
            <path d="M538.02,538.02 C444.674,631.36 293.326,631.36 199.98,538.02 C153.307,491.347 129.972,430.173 129.972,369 L608.029,369 C608.029,430.173 584.693,491.347 538.02,538.02 Z" id="Path" fill-opacity="0.15" fill="#27A3DE"></path>
            <path d="M187.988124,525.09353 C149.328621,480.349825 130,424.674498 130,369 L608.057,369 C608.057,424.958077 588.53014,480.91699 549.475654,525.776385 C506.170642,517.171494 446.398974,510.084 366.988,510.084 C289.687455,510.084 230.996326,516.799718 187.988124,525.09353 Z" id="Combined-Shape" fill="#FFFFFF"></path>
        </g>
    </g>
</svg>