<?xml version="1.0" encoding="UTF-8" standalone="no"?>
<svg width="868px" height="271px" viewBox="0 0 868 271" version="1.1" xmlns="http://www.w3.org/2000/svg" xmlns:xlink="http://www.w3.org/1999/xlink">
    <!-- Generator: Sketch 3.8.1 (29687) - http://www.bohemiancoding.com/sketch -->
    <title>smiley</title>
    <desc>Created with Sketch.</desc>
    <defs></defs>
    <g id="Page-1" stroke="none" stroke-width="1" fill="none" fill-rule="evenodd">
        <g id="Group" transform="translate(-11.000000, -397.000000)" fill="#000000">
            <path d="M143.4375,560.3125 C143.4375,570.906303 140.859401,579.976525 135.703125,587.523438 C130.546849,595.07035 122.929738,600.789043 112.851562,604.679688 C102.773387,608.570332 90.5156972,610.515625 76.078125,610.515625 C62.2968061,610.515625 50.4844242,608.406271 40.640625,604.1875 C30.7968258,599.968729 23.5312734,594.695344 18.84375,588.367188 C14.1562266,582.039031 11.8125,575.687532 11.8125,569.3125 C11.8125,565.093729 13.312485,561.48439 16.3125,558.484375 C19.312515,555.48436 23.109352,553.984375 27.703125,553.984375 C31.7343952,553.984375 34.8281142,554.96874 36.984375,556.9375 C39.1406358,558.90626 41.2031152,561.671857 43.171875,565.234375 C47.1093947,572.078159 51.8202851,577.187483 57.3046875,580.5625 C62.7890899,583.937517 70.2655777,585.625 79.734375,585.625 C87.4219134,585.625 93.7265379,583.91408 98.6484375,580.492188 C103.570337,577.070295 106.03125,573.156272 106.03125,568.75 C106.03125,561.999966 103.476588,557.07814 98.3671875,553.984375 C93.257787,550.89061 84.8438086,547.937514 73.125,545.125 C59.9061839,541.843734 49.148479,538.398456 40.8515625,534.789062 C32.554646,531.179669 25.9218998,526.421905 20.953125,520.515625 C15.9843502,514.609345 13.5,507.343793 13.5,498.71875 C13.5,491.031212 15.796852,483.765659 20.390625,476.921875 C24.984398,470.078091 31.7577677,464.617208 40.7109375,460.539062 C49.6641073,456.460917 60.4686867,454.421875 73.125,454.421875 C83.0625497,454.421875 91.9921479,455.453115 99.9140625,457.515625 C107.835977,459.578135 114.445286,462.343733 119.742188,465.8125 C125.039089,469.281267 129.070299,473.124979 131.835938,477.34375 C134.601576,481.562521 135.984375,485.68748 135.984375,489.71875 C135.984375,494.125022 134.507827,497.734361 131.554688,500.546875 C128.601548,503.359389 124.406277,504.765625 118.96875,504.765625 C115.03123,504.765625 111.679701,503.640636 108.914062,501.390625 C106.148424,499.140614 102.984393,495.765648 99.421875,491.265625 C96.5156105,487.515606 93.0937697,484.515636 89.15625,482.265625 C85.2187303,480.015614 79.8750338,478.890625 73.125,478.890625 C66.1874653,478.890625 60.421898,480.367173 55.828125,483.320312 C51.234352,486.273452 48.9375,489.953103 48.9375,494.359375 C48.9375,498.390645 50.6249831,501.6953 54,504.273438 C57.3750169,506.851575 61.9218464,508.984367 67.640625,510.671875 C73.3594036,512.359383 81.2343248,514.421863 91.265625,516.859375 C103.171935,519.76564 112.8984,523.234355 120.445312,527.265625 C127.992225,531.296895 133.710918,536.05466 137.601562,541.539062 C141.492207,547.023465 143.4375,553.281215 143.4375,560.3125 L143.4375,560.3125 Z M303.609375,535.28125 L303.609375,586.328125 C303.609375,594.390665 301.781268,600.43748 298.125,604.46875 C294.468732,608.50002 289.640655,610.515625 283.640625,610.515625 C277.828096,610.515625 273.117206,608.50002 269.507812,604.46875 C265.898419,600.43748 264.09375,594.390665 264.09375,586.328125 L264.09375,525.15625 C264.09375,515.499952 263.765628,508.000027 263.109375,502.65625 C262.453122,497.312473 260.67189,492.929705 257.765625,489.507812 C254.85936,486.08592 250.265656,484.375 243.984375,484.375 C231.421812,484.375 223.148457,488.687457 219.164062,497.3125 C215.179668,505.937543 213.1875,518.312419 213.1875,534.4375 L213.1875,586.328125 C213.1875,594.296915 211.382831,600.320292 207.773438,604.398438 C204.164044,608.476583 199.40628,610.515625 193.5,610.515625 C187.687471,610.515625 182.929706,608.476583 179.226562,604.398438 C175.523419,600.320292 173.671875,594.296915 173.671875,586.328125 L173.671875,476.5 C173.671875,469.281214 175.335921,463.796894 178.664062,460.046875 C181.992204,456.296856 186.374973,454.421875 191.8125,454.421875 C197.062526,454.421875 201.445295,456.17967 204.960938,459.695312 C208.47658,463.210955 210.234375,468.062469 210.234375,474.25 L210.234375,477.90625 C216.890658,469.93746 224.015587,464.078144 231.609375,460.328125 C239.203163,456.578106 247.640579,454.703125 256.921875,454.703125 C266.578173,454.703125 274.874965,456.624981 281.8125,460.46875 C288.750035,464.312519 294.468727,470.124961 298.96875,477.90625 C305.437532,470.031211 312.374963,464.195331 319.78125,460.398438 C327.187537,456.601544 335.39058,454.703125 344.390625,454.703125 C354.890678,454.703125 363.937462,456.765604 371.53125,460.890625 C379.125038,465.015646 384.796856,470.921837 388.546875,478.609375 C391.828141,485.54691 393.46875,496.468675 393.46875,511.375 L393.46875,586.328125 C393.46875,594.390665 391.640643,600.43748 387.984375,604.46875 C384.328107,608.50002 379.50003,610.515625 373.5,610.515625 C367.687471,610.515625 362.929706,608.476583 359.226562,604.398438 C355.523419,600.320292 353.671875,594.296915 353.671875,586.328125 L353.671875,521.78125 C353.671875,513.531209 353.320316,506.9219 352.617188,501.953125 C351.914059,496.98435 350.01564,492.812517 346.921875,489.4375 C343.82811,486.062483 339.140656,484.375 332.859375,484.375 C327.79685,484.375 322.99221,485.874985 318.445312,488.875 C313.898415,491.875015 310.359388,495.906225 307.828125,500.96875 C305.015611,507.437532 303.609375,518.874918 303.609375,535.28125 L303.609375,535.28125 Z M469.125,476.21875 L469.125,587.171875 C469.125,594.859413 467.296893,600.671855 463.640625,604.609375 C459.984357,608.546895 455.343778,610.515625 449.71875,610.515625 C444.093722,610.515625 439.523455,608.50002 436.007812,604.46875 C432.49217,600.43748 430.734375,594.671912 430.734375,587.171875 L430.734375,477.34375 C430.734375,469.749962 432.49217,464.031269 436.007812,460.1875 C439.523455,456.343731 444.093722,454.421875 449.71875,454.421875 C455.343778,454.421875 459.984357,456.343731 463.640625,460.1875 C467.296893,464.031269 469.125,469.374966 469.125,476.21875 L469.125,476.21875 Z M450.140625,436.5625 C444.796848,436.5625 440.226581,434.921891 436.429688,431.640625 C432.632794,428.359359 430.734375,423.71878 430.734375,417.71875 C430.734375,412.281223 432.679668,407.804705 436.570312,404.289062 C440.460957,400.77342 444.984349,399.015625 450.140625,399.015625 C455.1094,399.015625 459.515606,400.609359 463.359375,403.796875 C467.203144,406.984391 469.125,411.62497 469.125,417.71875 C469.125,423.62503 467.250019,428.242171 463.5,431.570312 C459.749981,434.898454 455.296901,436.5625 450.140625,436.5625 L450.140625,436.5625 Z M508.78125,587.171875 L508.78125,420.671875 C508.78125,412.984337 510.49217,407.171895 513.914062,403.234375 C517.335955,399.296855 521.953096,397.328125 527.765625,397.328125 C533.578154,397.328125 538.265607,399.273418 541.828125,403.164062 C545.390643,407.054707 547.171875,412.890586 547.171875,420.671875 L547.171875,587.171875 C547.171875,594.953164 545.367206,600.789043 541.757812,604.679688 C538.148419,608.570332 533.484404,610.515625 527.765625,610.515625 C522.140597,610.515625 517.57033,608.50002 514.054688,604.46875 C510.539045,600.43748 508.78125,594.671912 508.78125,587.171875 L508.78125,587.171875 Z M693.984375,541.890625 L618.890625,541.890625 C618.984375,550.609419 620.74217,558.296842 624.164062,564.953125 C627.585955,571.609408 632.132784,576.624983 637.804688,580 C643.476591,583.375017 649.734341,585.0625 656.578125,585.0625 C661.171898,585.0625 665.367169,584.523443 669.164062,583.445312 C672.960956,582.367182 676.640607,580.679699 680.203125,578.382812 C683.765643,576.085926 687.04686,573.625013 690.046875,571 C693.04689,568.374987 696.937476,564.812523 701.71875,560.3125 C703.68751,558.624992 706.499982,557.78125 710.15625,557.78125 C714.09377,557.78125 717.281238,558.859364 719.71875,561.015625 C722.156262,563.171886 723.375,566.21873 723.375,570.15625 C723.375,573.625017 722.015639,577.679664 719.296875,582.320312 C716.578111,586.960961 712.47659,591.414041 706.992188,595.679688 C701.507785,599.945334 694.617229,603.484361 686.320312,606.296875 C678.023396,609.109389 668.484429,610.515625 657.703125,610.515625 C633.046752,610.515625 613.875068,603.484445 600.1875,589.421875 C586.499932,575.359305 579.65625,556.28137 579.65625,532.1875 C579.65625,520.843693 581.343733,510.320361 584.71875,500.617188 C588.093767,490.914014 593.015593,482.593785 599.484375,475.65625 C605.953157,468.718715 613.921828,463.398456 623.390625,459.695312 C632.859422,455.992169 643.359317,454.140625 654.890625,454.140625 C669.8907,454.140625 682.757759,457.304656 693.492188,463.632812 C704.226616,469.960969 712.265598,478.140575 717.609375,488.171875 C722.953152,498.203175 725.625,508.421823 725.625,518.828125 C725.625,528.484423 722.859403,534.742173 717.328125,537.601562 C711.796847,540.460952 704.015675,541.890625 693.984375,541.890625 L693.984375,541.890625 Z M618.890625,520.09375 L688.5,520.09375 C687.562495,506.968684 684.023468,497.14847 677.882812,490.632812 C671.742157,484.117155 663.6563,480.859375 653.625,480.859375 C644.062452,480.859375 636.210968,484.164029 630.070312,490.773438 C623.929657,497.382846 620.203132,507.156185 618.890625,520.09375 L618.890625,520.09375 Z M785.953125,615.296875 L789.46875,606.71875 L742.21875,487.75 C739.312485,480.906216 737.859375,475.937515 737.859375,472.84375 C737.859375,469.562484 738.703117,466.515639 740.390625,463.703125 C742.078133,460.890611 744.398423,458.640633 747.351562,456.953125 C750.304702,455.265617 753.374984,454.421875 756.5625,454.421875 C762.093778,454.421875 766.265611,456.17967 769.078125,459.695312 C771.890639,463.210955 774.374989,468.249967 776.53125,474.8125 L809.015625,569.3125 L839.8125,481.421875 C842.250012,474.296839 844.453115,468.71877 846.421875,464.6875 C848.390635,460.65623 850.476551,457.937507 852.679688,456.53125 C854.882824,455.124993 857.99998,454.421875 862.03125,454.421875 C864.937515,454.421875 867.726549,455.195305 870.398438,456.742188 C873.070326,458.28907 875.132805,460.374987 876.585938,463 C878.03907,465.625013 878.765625,468.39061 878.765625,471.296875 C878.390623,473.078134 877.781254,475.609359 876.9375,478.890625 C876.093746,482.171891 875.062506,485.499983 873.84375,488.875 L823.78125,619.9375 C819.468728,631.468808 815.250021,640.515592 811.125,647.078125 C806.999979,653.640658 801.539096,658.67967 794.742188,662.195312 C787.945279,665.710955 778.781308,667.46875 767.25,667.46875 C755.999944,667.46875 747.562528,666.250012 741.9375,663.8125 C736.312472,661.374988 733.5,656.921907 733.5,650.453125 C733.5,646.046853 734.835924,642.648449 737.507812,640.257812 C740.179701,637.867176 744.140599,636.671875 749.390625,636.671875 C751.453135,636.671875 753.46874,636.953122 755.4375,637.515625 C757.875012,638.078128 759.984366,638.359375 761.765625,638.359375 C766.171897,638.359375 769.640612,637.703132 772.171875,636.390625 C774.703138,635.078118 776.976552,632.804704 778.992188,629.570312 C781.007823,626.335921 783.328112,621.578156 785.953125,615.296875 L785.953125,615.296875 Z" id="smiley"></path>
        </g>
    </g>
</svg>