<?xml version="1.0" encoding="UTF-8" standalone="no"?>
<svg width="80px" height="88px" viewBox="0 0 80 88" version="1.1" xmlns="http://www.w3.org/2000/svg" xmlns:xlink="http://www.w3.org/1999/xlink">
    <!-- Generator: Sketch 40.2 (33826) - http://www.bohemiancoding.com/sketch -->
    <title>SmileyLogo</title>
    <desc>Created with Sketch.</desc>
    <defs></defs>
    <g id="Page-1" stroke="none" stroke-width="1" fill="none" fill-rule="evenodd">
        <g id="SmileyLogo" fill="#445560">
            <path d="M5.5414123,63.9060071 C5.5414123,63.9060071 23.1583474,79.4792913 40.9155809,79.4792917 C58.672814,79.4792917 74.609959,63.9800321 74.609959,63.9800321 C76.1208311,62.6456281 78.5126856,62.6835934 80,64.1105792 C80,64.1105792 66.1419409,87.3922322 40.9155809,87.3922325 C15.6892208,87.3922325 7.10542736e-15,64.1105792 7.10542736e-15,64.1105792 C1.46596579,62.7040761 3.93365627,62.6309188 5.5414123,63.9060071 Z" id="Rectangle-17"></path>
            <path d="M42.0487222,62.84 C54.8785556,62.84 63.8681667,56.0323333 63.8681667,44.5989444 L63.8681667,44.4243889 C63.8681667,34.3001667 57.2350556,29.6744444 44.3179444,26.5324444 C32.5354444,23.7395556 29.7425556,21.6448889 29.7425556,16.9318889 L29.7425556,16.7573333 C29.7425556,12.7425556 33.4082222,9.51327778 39.6922222,9.51327778 C44.4925,9.51327778 49.0309444,11.0842778 53.7439444,14.139 C54.6167222,14.6626667 55.4895,14.9245 56.5368333,14.9245 C59.3297222,14.9245 61.5989444,12.7425556 61.5989444,9.94966667 C61.5989444,7.855 60.4643333,6.37127778 59.2424444,5.67305556 C53.7439444,2.00738889 47.5472222,0 39.8667778,0 C27.7351667,0 19.0073889,7.24405556 19.0073889,17.7173889 L19.0073889,17.8919444 C19.0073889,29.1507778 26.3387222,32.991 39.3431111,36.133 C50.6892222,38.7513333 53.133,41.1078333 53.133,45.4717222 L53.133,45.6462778 C53.133,50.1847222 48.9436667,53.3267222 42.3105556,53.3267222 C35.6774444,53.3267222 30.2662222,51.0575 25.2041111,47.0427222 C24.5058889,46.5190556 23.5458333,46.0826667 22.0621111,46.0826667 C19.2692222,46.0826667 17,48.2646111 17,51.0575 C17,52.8030556 17.8727778,54.2867778 19.0946667,55.1595556 C25.9023333,60.2216667 33.7573333,62.84 42.0487222,62.84 L42.0487222,62.84 Z" id="S"></path>
        </g>
    </g>
</svg>